<svg width="24" height="25" viewBox="0 0 24 25" fill="none" xmlns="http://www.w3.org/2000/svg">
<path d="M9.1499 7.92664C8.5899 7.92664 8.1499 8.37664 8.1499 8.92664C8.1499 9.47664 8.5999 9.92664 9.1499 9.92664C9.6999 9.92664 10.1499 9.47664 10.1499 8.92664C10.1499 8.37664 9.6999 7.92664 9.1499 7.92664Z" fill="#FF7D36"/>
<path d="M21.46 5.47665C20.62 3.52665 18.77 2.43665 16.19 2.43665H7.81C4.6 2.43665 2 5.03665 2 8.24665V16.6266C2 19.2066 3.09 21.0566 5.04 21.8966C5.23 21.9766 5.45 21.9266 5.59 21.7866L21.35 6.02665C21.5 5.87665 21.55 5.65665 21.46 5.47665ZM10.53 12.6766C10.14 13.0566 9.63 13.2366 9.12 13.2366C8.61 13.2366 8.1 13.0466 7.71 12.6766C6.69 11.7166 5.57 10.1866 6 8.36665C6.38 6.71665 7.84 5.97665 9.12 5.97665C10.4 5.97665 11.86 6.71665 12.24 8.37665C12.66 10.1866 11.54 11.7166 10.53 12.6766Z" fill="#FF7D36"/>
<path d="M19.4699 20.9667C19.6899 21.1867 19.6599 21.5467 19.3899 21.6967C18.5099 22.1867 17.4399 22.4367 16.1899 22.4367H7.8099C7.5199 22.4367 7.3999 22.0967 7.5999 21.8967L13.6399 15.8567C13.8399 15.6567 14.1499 15.6567 14.3499 15.8567L19.4699 20.9667Z" fill="#FF7D36"/>
<path d="M22 8.24666V16.6267C22 17.8767 21.75 18.9567 21.26 19.8267C21.11 20.0967 20.75 20.1167 20.53 19.9067L15.41 14.7867C15.21 14.5867 15.21 14.2767 15.41 14.0767L21.45 8.03666C21.66 7.83666 22 7.95666 22 8.24666Z" fill="#FF7D36"/>
</svg>
