<svg width="14" height="15" viewBox="0 0 14 15" fill="none" xmlns="http://www.w3.org/2000/svg">
<g clip-path="url(#clip0_7575_412)">
<path d="M5.1801 3.12C4.71343 1.10167 1.67426 1.09584 1.2076 3.12C0.933429 4.30417 1.68593 5.3075 2.33926 5.93167C2.8176 6.38084 3.5701 6.38084 4.04843 5.93167C4.70176 5.3075 5.44843 4.30417 5.1801 3.12ZM3.21426 4.05334C2.89343 4.05334 2.63093 3.79084 2.63093 3.47C2.63093 3.14917 2.8876 2.88667 3.20843 2.88667H3.21426C3.54093 2.88667 3.7976 3.14917 3.7976 3.47C3.7976 3.79084 3.54093 4.05334 3.21426 4.05334Z" fill="#FF7D36"/>
<path d="M12.7808 10.12C12.3142 8.10167 9.26333 8.09584 8.79083 10.12C8.51666 11.3042 9.26916 12.3075 9.92833 12.9317C10.4067 13.3808 11.165 13.3808 11.6433 12.9317C12.3025 12.3075 13.055 11.3042 12.7808 10.12ZM10.8092 11.0533C10.4883 11.0533 10.2258 10.7908 10.2258 10.47C10.2258 10.1492 10.4825 9.88667 10.8033 9.88667H10.8092C11.13 9.88667 11.3925 10.1492 11.3925 10.47C11.3925 10.7908 11.13 11.0533 10.8092 11.0533Z" fill="#FF7D36"/>
<path d="M6.99992 11.9575H5.43659C4.75992 11.9575 4.17076 11.5492 3.93742 10.9192C3.69826 10.2892 3.87326 9.595 4.38076 9.14583L9.04159 5.06833C9.32159 4.82333 9.32742 4.49083 9.24576 4.26333C9.15826 4.03583 8.93659 3.79083 8.56326 3.79083H6.99992C6.76076 3.79083 6.56242 3.5925 6.56242 3.35333C6.56242 3.11417 6.76076 2.91583 6.99992 2.91583H8.56326C9.23992 2.91583 9.82909 3.32417 10.0624 3.95417C10.3016 4.58417 10.1266 5.27833 9.61909 5.7275L4.95826 9.805C4.67826 10.05 4.67242 10.3825 4.75409 10.61C4.84159 10.8375 5.06326 11.0825 5.43659 11.0825H6.99992C7.23909 11.0825 7.43742 11.2808 7.43742 11.52C7.43742 11.7592 7.23909 11.9575 6.99992 11.9575Z" fill="#FF7D36"/>
</g>
<defs>
<clipPath id="clip0_7575_412">
<rect width="14" height="14" fill="white" transform="translate(0 0.436646)"/>
</clipPath>
</defs>
</svg>
