<svg width="20" height="20" viewBox="0 0 20 20" fill="none" xmlns="http://www.w3.org/2000/svg">
<path d="M12.2751 1.66669H7.7251V5.30002H12.2751V1.66669Z" fill="#FF7D36"/>
<path d="M13.5249 1.66669V5.30002H18.2249C17.7999 3.00835 16.1082 1.67502 13.5249 1.66669Z" fill="#FF7D36"/>
<path d="M1.66675 6.54999V13.4917C1.66675 16.525 3.47508 18.3333 6.50841 18.3333H13.4917C16.5251 18.3333 18.3334 16.525 18.3334 13.4917V6.54999H1.66675ZM12.0334 13.4833L10.3001 14.4833C9.93341 14.6917 9.57508 14.8 9.24175 14.8C8.99175 14.8 8.76675 14.7417 8.55842 14.625C8.07508 14.35 7.80841 13.7833 7.80841 13.05V11.05C7.80841 10.3167 8.07508 9.74999 8.55842 9.47499C9.04175 9.19165 9.65841 9.24165 10.3001 9.61665L12.0334 10.6167C12.6751 10.9833 13.0251 11.5 13.0251 12.0583C13.0251 12.6167 12.6667 13.1083 12.0334 13.4833Z" fill="#FF7D36"/>
<path d="M6.4749 1.66669C3.89157 1.67502 2.1999 3.00835 1.7749 5.30002H6.4749V1.66669Z" fill="#FF7D36"/>
</svg>
