<svg width="44" height="44" viewBox="0 0 44 44" fill="none" xmlns="http://www.w3.org/2000/svg">
<rect width="44" height="44" rx="22" fill="#FF7D36"/>
<rect x="0.5" y="0.5" width="43" height="43" rx="21.5" stroke="white" stroke-opacity="0.1"/>
<path fill-rule="evenodd" clip-rule="evenodd" d="M22 20.9667V14.0833C22 13.8532 21.8135 13.6667 21.5833 13.6667H20.9583C20.7282 13.6667 20.5417 13.8532 20.5417 14.0833V19.9167C20.5417 20.1468 20.3551 20.3333 20.125 20.3333H19.8167C19.5866 20.3333 19.4 20.1468 19.4 19.9167V14.0833C19.4 13.8532 19.2135 13.6667 18.9833 13.6667H18.35C18.1199 13.6667 17.9333 13.8532 17.9333 14.0833V19.9167C17.9333 20.1468 17.7468 20.3333 17.5167 20.3333H17.2083C16.9782 20.3333 16.7917 20.1468 16.7917 19.9167V14.0833C16.7917 13.8532 16.6051 13.6667 16.375 13.6667H15.75C15.5199 13.6667 15.3333 13.8532 15.3333 14.0833V20.9667C15.3339 21.6295 15.5977 22.2649 16.0667 22.7333L16.7583 23.425C16.9136 23.5789 17.1231 23.6657 17.3417 23.6667H17.8333V29.9167C17.8333 30.1468 18.0199 30.3333 18.25 30.3333H19.0833C19.3135 30.3333 19.5 30.1468 19.5 29.9167V23.6667H19.9917C20.2103 23.6657 20.4198 23.5789 20.575 23.425L21.2667 22.7333C21.7357 22.2649 21.9994 21.6295 22 20.9667ZM28.25 13.6667C28.4801 13.6667 28.6667 13.8532 28.6667 14.0833V29.9167C28.6667 30.1468 28.4801 30.3333 28.25 30.3333H27.4167C27.1866 30.3333 27 30.1468 27 29.9167V23.6667H25.3333C24.8731 23.6667 24.5 23.2936 24.5 22.8333V17C24.5 15.159 25.9924 13.6667 27.8333 13.6667H28.25Z" fill="white"/>
</svg>
