<svg width="20" height="20" viewBox="0 0 20 20" fill="none" xmlns="http://www.w3.org/2000/svg">
<path d="M17.9417 9.05834L16.6751 7.79167C16.4584 7.575 16.2834 7.15 16.2834 6.85V5.05C16.2834 4.31667 15.6834 3.71667 14.9501 3.71667H13.1584C12.8584 3.71667 12.4334 3.54167 12.2167 3.325L10.9501 2.05834C10.4334 1.54167 9.5834 1.54167 9.06673 2.05834L7.7834 3.325C7.57507 3.54167 7.15007 3.71667 6.84173 3.71667H5.05007C4.31673 3.71667 3.71673 4.31667 3.71673 5.05V6.84167C3.71673 7.14167 3.54173 7.56667 3.32507 7.78334L2.0584 9.05C1.54173 9.56667 1.54173 10.4167 2.0584 10.9333L3.32507 12.2C3.54173 12.4167 3.71673 12.8417 3.71673 13.1417V14.9333C3.71673 15.6667 4.31673 16.2667 5.05007 16.2667H6.84173C7.14173 16.2667 7.56673 16.4417 7.7834 16.6583L9.05007 17.925C9.56673 18.4417 10.4167 18.4417 10.9334 17.925L12.2001 16.6583C12.4167 16.4417 12.8417 16.2667 13.1417 16.2667H14.9334C15.6667 16.2667 16.2667 15.6667 16.2667 14.9333V13.1417C16.2667 12.8417 16.4417 12.4167 16.6584 12.2L17.9251 10.9333C18.4667 10.425 18.4667 9.575 17.9417 9.05834ZM6.66673 7.5C6.66673 7.04167 7.04173 6.66667 7.50007 6.66667C7.9584 6.66667 8.3334 7.04167 8.3334 7.5C8.3334 7.95834 7.96673 8.33334 7.50007 8.33334C7.04173 8.33334 6.66673 7.95834 6.66673 7.5ZM7.94173 12.9417C7.81673 13.0667 7.6584 13.125 7.50007 13.125C7.34173 13.125 7.1834 13.0667 7.0584 12.9417C6.81673 12.7 6.81673 12.3 7.0584 12.0583L12.0584 7.05834C12.3001 6.81667 12.7001 6.81667 12.9417 7.05834C13.1834 7.3 13.1834 7.7 12.9417 7.94167L7.94173 12.9417ZM12.5001 13.3333C12.0334 13.3333 11.6584 12.9583 11.6584 12.5C11.6584 12.0417 12.0334 11.6667 12.4917 11.6667C12.9501 11.6667 13.3251 12.0417 13.3251 12.5C13.3251 12.9583 12.9584 13.3333 12.5001 13.3333Z" fill="#FF7D36"/>
</svg>
