<svg width="14" height="15" viewBox="0 0 14 15" fill="none" xmlns="http://www.w3.org/2000/svg">
<path d="M12.0284 5.36579C11.4159 2.67079 9.06506 1.45746 7.00006 1.45746C7.00006 1.45746 7.00006 1.45746 6.99422 1.45746C4.93506 1.45746 2.57839 2.66496 1.96589 5.35996C1.28339 8.36996 3.12672 10.9191 4.79506 12.5233C5.41339 13.1183 6.20672 13.4158 7.00006 13.4158C7.79339 13.4158 8.58672 13.1183 9.19922 12.5233C10.8676 10.9191 12.7109 8.37579 12.0284 5.36579ZM7.00006 8.28829C5.98506 8.28829 5.16256 7.46579 5.16256 6.45079C5.16256 5.43579 5.98506 4.61329 7.00006 4.61329C8.01506 4.61329 8.83756 5.43579 8.83756 6.45079C8.83756 7.46579 8.01506 8.28829 7.00006 8.28829Z" fill="#FF7D36"/>
</svg>
